<mxfile host="app.diagrams.net" modified="2021-03-10T12:43:24.121Z" agent="5.0 (X11; Linux x86_64) AppleWebKit/537.36 (KHTML, like Gecko) Chrome/87.0.4280.141 Safari/537.36" etag="AulOZ-YU28I6K_9oV586" version="14.4.6" type="github">
  <diagram id="9Nm-F1C3xGsKmeDrmo8N" name="Page-1">
    <mxGraphModel dx="1081" dy="1133" grid="1" gridSize="10" guides="1" tooltips="1" connect="1" arrows="1" fold="1" page="1" pageScale="1" pageWidth="2000" pageHeight="2000" math="0" shadow="0">
      <root>
        <mxCell id="0" />
        <mxCell id="1" parent="0" />
        <mxCell id="pSx6hQg3YsWMSA2dsdlA-18" value="users" style="shape=table;html=1;whiteSpace=wrap;startSize=30;container=1;collapsible=0;childLayout=tableLayout;fixedRows=1;rowLines=0;fontStyle=1;align=center;fontSize=15;" vertex="1" parent="1">
          <mxGeometry x="950" y="160" width="180" height="140" as="geometry" />
        </mxCell>
        <mxCell id="pSx6hQg3YsWMSA2dsdlA-19" value="" style="shape=partialRectangle;html=1;whiteSpace=wrap;collapsible=0;dropTarget=0;pointerEvents=0;fillColor=none;top=0;left=0;bottom=1;right=0;points=[[0,0.5],[1,0.5]];portConstraint=eastwest;fontSize=15;" vertex="1" parent="pSx6hQg3YsWMSA2dsdlA-18">
          <mxGeometry y="30" width="180" height="30" as="geometry" />
        </mxCell>
        <mxCell id="pSx6hQg3YsWMSA2dsdlA-20" value="PK" style="shape=partialRectangle;html=1;whiteSpace=wrap;connectable=0;fillColor=none;top=0;left=0;bottom=0;right=0;overflow=hidden;fontSize=15;" vertex="1" parent="pSx6hQg3YsWMSA2dsdlA-19">
          <mxGeometry width="40" height="30" as="geometry" />
        </mxCell>
        <mxCell id="pSx6hQg3YsWMSA2dsdlA-21" value="&lt;u style=&quot;font-size: 15px&quot;&gt;id&lt;/u&gt;" style="shape=partialRectangle;html=1;whiteSpace=wrap;connectable=0;fillColor=none;top=0;left=0;bottom=0;right=0;align=left;spacingLeft=6;overflow=hidden;fontSize=15;" vertex="1" parent="pSx6hQg3YsWMSA2dsdlA-19">
          <mxGeometry x="40" width="140" height="30" as="geometry" />
        </mxCell>
        <mxCell id="pSx6hQg3YsWMSA2dsdlA-22" value="" style="shape=partialRectangle;html=1;whiteSpace=wrap;collapsible=0;dropTarget=0;pointerEvents=0;fillColor=none;top=0;left=0;bottom=0;right=0;points=[[0,0.5],[1,0.5]];portConstraint=eastwest;fontSize=15;" vertex="1" parent="pSx6hQg3YsWMSA2dsdlA-18">
          <mxGeometry y="60" width="180" height="40" as="geometry" />
        </mxCell>
        <mxCell id="pSx6hQg3YsWMSA2dsdlA-23" value="" style="shape=partialRectangle;html=1;whiteSpace=wrap;connectable=0;fillColor=none;top=0;left=0;bottom=0;right=0;overflow=hidden;fontSize=15;" vertex="1" parent="pSx6hQg3YsWMSA2dsdlA-22">
          <mxGeometry width="40" height="40" as="geometry" />
        </mxCell>
        <mxCell id="pSx6hQg3YsWMSA2dsdlA-24" value="email" style="shape=partialRectangle;html=1;whiteSpace=wrap;connectable=0;fillColor=none;top=0;left=0;bottom=0;right=0;align=left;spacingLeft=6;overflow=hidden;fontSize=15;" vertex="1" parent="pSx6hQg3YsWMSA2dsdlA-22">
          <mxGeometry x="40" width="140" height="40" as="geometry" />
        </mxCell>
        <mxCell id="pSx6hQg3YsWMSA2dsdlA-176" style="shape=partialRectangle;html=1;whiteSpace=wrap;collapsible=0;dropTarget=0;pointerEvents=0;fillColor=none;top=0;left=0;bottom=0;right=0;points=[[0,0.5],[1,0.5]];portConstraint=eastwest;fontSize=15;" vertex="1" parent="pSx6hQg3YsWMSA2dsdlA-18">
          <mxGeometry y="100" width="180" height="40" as="geometry" />
        </mxCell>
        <mxCell id="pSx6hQg3YsWMSA2dsdlA-177" style="shape=partialRectangle;html=1;whiteSpace=wrap;connectable=0;fillColor=none;top=0;left=0;bottom=0;right=0;overflow=hidden;fontSize=15;" vertex="1" parent="pSx6hQg3YsWMSA2dsdlA-176">
          <mxGeometry width="40" height="40" as="geometry" />
        </mxCell>
        <mxCell id="pSx6hQg3YsWMSA2dsdlA-178" value="&lt;span&gt;passwordHash&lt;/span&gt;" style="shape=partialRectangle;html=1;whiteSpace=wrap;connectable=0;fillColor=none;top=0;left=0;bottom=0;right=0;align=left;spacingLeft=6;overflow=hidden;fontSize=15;" vertex="1" parent="pSx6hQg3YsWMSA2dsdlA-176">
          <mxGeometry x="40" width="140" height="40" as="geometry" />
        </mxCell>
        <mxCell id="pSx6hQg3YsWMSA2dsdlA-28" value="posts" style="shape=table;html=1;whiteSpace=wrap;startSize=30;container=1;collapsible=0;childLayout=tableLayout;fixedRows=1;rowLines=0;fontStyle=1;align=center;fontSize=15;" vertex="1" parent="1">
          <mxGeometry x="710" y="240" width="180" height="180" as="geometry" />
        </mxCell>
        <mxCell id="pSx6hQg3YsWMSA2dsdlA-29" value="" style="shape=partialRectangle;html=1;whiteSpace=wrap;collapsible=0;dropTarget=0;pointerEvents=0;fillColor=none;top=0;left=0;bottom=1;right=0;points=[[0,0.5],[1,0.5]];portConstraint=eastwest;fontSize=15;" vertex="1" parent="pSx6hQg3YsWMSA2dsdlA-28">
          <mxGeometry y="30" width="180" height="30" as="geometry" />
        </mxCell>
        <mxCell id="pSx6hQg3YsWMSA2dsdlA-30" value="PK" style="shape=partialRectangle;html=1;whiteSpace=wrap;connectable=0;fillColor=none;top=0;left=0;bottom=0;right=0;overflow=hidden;fontSize=15;" vertex="1" parent="pSx6hQg3YsWMSA2dsdlA-29">
          <mxGeometry width="40" height="30" as="geometry" />
        </mxCell>
        <mxCell id="pSx6hQg3YsWMSA2dsdlA-31" value="&lt;u style=&quot;font-size: 15px;&quot;&gt;id&lt;/u&gt;" style="shape=partialRectangle;html=1;whiteSpace=wrap;connectable=0;fillColor=none;top=0;left=0;bottom=0;right=0;align=left;spacingLeft=6;overflow=hidden;fontSize=15;" vertex="1" parent="pSx6hQg3YsWMSA2dsdlA-29">
          <mxGeometry x="40" width="140" height="30" as="geometry" />
        </mxCell>
        <mxCell id="pSx6hQg3YsWMSA2dsdlA-162" style="shape=partialRectangle;html=1;whiteSpace=wrap;collapsible=0;dropTarget=0;pointerEvents=0;fillColor=none;top=0;left=0;bottom=0;right=0;points=[[0,0.5],[1,0.5]];portConstraint=eastwest;fontSize=15;" vertex="1" parent="pSx6hQg3YsWMSA2dsdlA-28">
          <mxGeometry y="60" width="180" height="30" as="geometry" />
        </mxCell>
        <mxCell id="pSx6hQg3YsWMSA2dsdlA-163" value="FK" style="shape=partialRectangle;html=1;whiteSpace=wrap;connectable=0;fillColor=none;top=0;left=0;bottom=0;right=0;overflow=hidden;fontSize=15;" vertex="1" parent="pSx6hQg3YsWMSA2dsdlA-162">
          <mxGeometry width="40" height="30" as="geometry" />
        </mxCell>
        <mxCell id="pSx6hQg3YsWMSA2dsdlA-164" value="userID" style="shape=partialRectangle;html=1;whiteSpace=wrap;connectable=0;fillColor=none;top=0;left=0;bottom=0;right=0;align=left;spacingLeft=6;overflow=hidden;fontSize=15;" vertex="1" parent="pSx6hQg3YsWMSA2dsdlA-162">
          <mxGeometry x="40" width="140" height="30" as="geometry" />
        </mxCell>
        <mxCell id="pSx6hQg3YsWMSA2dsdlA-32" value="" style="shape=partialRectangle;html=1;whiteSpace=wrap;collapsible=0;dropTarget=0;pointerEvents=0;fillColor=none;top=0;left=0;bottom=0;right=0;points=[[0,0.5],[1,0.5]];portConstraint=eastwest;fontSize=15;" vertex="1" parent="pSx6hQg3YsWMSA2dsdlA-28">
          <mxGeometry y="90" width="180" height="30" as="geometry" />
        </mxCell>
        <mxCell id="pSx6hQg3YsWMSA2dsdlA-33" value="" style="shape=partialRectangle;html=1;whiteSpace=wrap;connectable=0;fillColor=none;top=0;left=0;bottom=0;right=0;overflow=hidden;fontSize=15;" vertex="1" parent="pSx6hQg3YsWMSA2dsdlA-32">
          <mxGeometry width="40" height="30" as="geometry" />
        </mxCell>
        <mxCell id="pSx6hQg3YsWMSA2dsdlA-34" value="content" style="shape=partialRectangle;html=1;whiteSpace=wrap;connectable=0;fillColor=none;top=0;left=0;bottom=0;right=0;align=left;spacingLeft=6;overflow=hidden;fontSize=15;" vertex="1" parent="pSx6hQg3YsWMSA2dsdlA-32">
          <mxGeometry x="40" width="140" height="30" as="geometry" />
        </mxCell>
        <mxCell id="pSx6hQg3YsWMSA2dsdlA-35" value="" style="shape=partialRectangle;html=1;whiteSpace=wrap;collapsible=0;dropTarget=0;pointerEvents=0;fillColor=none;top=0;left=0;bottom=0;right=0;points=[[0,0.5],[1,0.5]];portConstraint=eastwest;fontSize=15;" vertex="1" parent="pSx6hQg3YsWMSA2dsdlA-28">
          <mxGeometry y="120" width="180" height="30" as="geometry" />
        </mxCell>
        <mxCell id="pSx6hQg3YsWMSA2dsdlA-36" value="" style="shape=partialRectangle;html=1;whiteSpace=wrap;connectable=0;fillColor=none;top=0;left=0;bottom=0;right=0;overflow=hidden;fontSize=15;" vertex="1" parent="pSx6hQg3YsWMSA2dsdlA-35">
          <mxGeometry width="40" height="30" as="geometry" />
        </mxCell>
        <mxCell id="pSx6hQg3YsWMSA2dsdlA-37" value="postDate" style="shape=partialRectangle;html=1;whiteSpace=wrap;connectable=0;fillColor=none;top=0;left=0;bottom=0;right=0;align=left;spacingLeft=6;overflow=hidden;fontSize=15;" vertex="1" parent="pSx6hQg3YsWMSA2dsdlA-35">
          <mxGeometry x="40" width="140" height="30" as="geometry" />
        </mxCell>
        <mxCell id="pSx6hQg3YsWMSA2dsdlA-144" style="shape=partialRectangle;html=1;whiteSpace=wrap;collapsible=0;dropTarget=0;pointerEvents=0;fillColor=none;top=0;left=0;bottom=0;right=0;points=[[0,0.5],[1,0.5]];portConstraint=eastwest;fontSize=15;" vertex="1" parent="pSx6hQg3YsWMSA2dsdlA-28">
          <mxGeometry y="150" width="180" height="30" as="geometry" />
        </mxCell>
        <mxCell id="pSx6hQg3YsWMSA2dsdlA-145" style="shape=partialRectangle;html=1;whiteSpace=wrap;connectable=0;fillColor=none;top=0;left=0;bottom=0;right=0;overflow=hidden;fontSize=15;" vertex="1" parent="pSx6hQg3YsWMSA2dsdlA-144">
          <mxGeometry width="40" height="30" as="geometry" />
        </mxCell>
        <mxCell id="pSx6hQg3YsWMSA2dsdlA-146" value="lastEdited" style="shape=partialRectangle;html=1;whiteSpace=wrap;connectable=0;fillColor=none;top=0;left=0;bottom=0;right=0;align=left;spacingLeft=6;overflow=hidden;fontSize=15;" vertex="1" parent="pSx6hQg3YsWMSA2dsdlA-144">
          <mxGeometry x="40" width="140" height="30" as="geometry" />
        </mxCell>
        <mxCell id="pSx6hQg3YsWMSA2dsdlA-38" value="commentLikes" style="shape=table;html=1;whiteSpace=wrap;startSize=30;container=1;collapsible=0;childLayout=tableLayout;fixedRows=1;rowLines=0;fontStyle=1;align=center;fontSize=15;" vertex="1" parent="1">
          <mxGeometry x="710" y="50" width="180" height="120" as="geometry" />
        </mxCell>
        <mxCell id="pSx6hQg3YsWMSA2dsdlA-39" value="" style="shape=partialRectangle;html=1;whiteSpace=wrap;collapsible=0;dropTarget=0;pointerEvents=0;fillColor=none;top=0;left=0;bottom=1;right=0;points=[[0,0.5],[1,0.5]];portConstraint=eastwest;fontSize=15;" vertex="1" parent="pSx6hQg3YsWMSA2dsdlA-38">
          <mxGeometry y="30" width="180" height="30" as="geometry" />
        </mxCell>
        <mxCell id="pSx6hQg3YsWMSA2dsdlA-40" value="PK" style="shape=partialRectangle;html=1;whiteSpace=wrap;connectable=0;fillColor=none;top=0;left=0;bottom=0;right=0;overflow=hidden;fontSize=15;" vertex="1" parent="pSx6hQg3YsWMSA2dsdlA-39">
          <mxGeometry width="40" height="30" as="geometry" />
        </mxCell>
        <mxCell id="pSx6hQg3YsWMSA2dsdlA-41" value="&lt;u style=&quot;font-size: 15px;&quot;&gt;id&lt;/u&gt;" style="shape=partialRectangle;html=1;whiteSpace=wrap;connectable=0;fillColor=none;top=0;left=0;bottom=0;right=0;align=left;spacingLeft=6;overflow=hidden;fontSize=15;" vertex="1" parent="pSx6hQg3YsWMSA2dsdlA-39">
          <mxGeometry x="40" width="140" height="30" as="geometry" />
        </mxCell>
        <mxCell id="pSx6hQg3YsWMSA2dsdlA-42" value="" style="shape=partialRectangle;html=1;whiteSpace=wrap;collapsible=0;dropTarget=0;pointerEvents=0;fillColor=none;top=0;left=0;bottom=0;right=0;points=[[0,0.5],[1,0.5]];portConstraint=eastwest;fontSize=15;" vertex="1" parent="pSx6hQg3YsWMSA2dsdlA-38">
          <mxGeometry y="60" width="180" height="30" as="geometry" />
        </mxCell>
        <mxCell id="pSx6hQg3YsWMSA2dsdlA-43" value="FK" style="shape=partialRectangle;html=1;whiteSpace=wrap;connectable=0;fillColor=none;top=0;left=0;bottom=0;right=0;overflow=hidden;fontSize=15;" vertex="1" parent="pSx6hQg3YsWMSA2dsdlA-42">
          <mxGeometry width="40" height="30" as="geometry" />
        </mxCell>
        <mxCell id="pSx6hQg3YsWMSA2dsdlA-44" value="userID" style="shape=partialRectangle;html=1;whiteSpace=wrap;connectable=0;fillColor=none;top=0;left=0;bottom=0;right=0;align=left;spacingLeft=6;overflow=hidden;fontSize=15;" vertex="1" parent="pSx6hQg3YsWMSA2dsdlA-42">
          <mxGeometry x="40" width="140" height="30" as="geometry" />
        </mxCell>
        <mxCell id="pSx6hQg3YsWMSA2dsdlA-45" value="" style="shape=partialRectangle;html=1;whiteSpace=wrap;collapsible=0;dropTarget=0;pointerEvents=0;fillColor=none;top=0;left=0;bottom=0;right=0;points=[[0,0.5],[1,0.5]];portConstraint=eastwest;fontSize=15;" vertex="1" parent="pSx6hQg3YsWMSA2dsdlA-38">
          <mxGeometry y="90" width="180" height="30" as="geometry" />
        </mxCell>
        <mxCell id="pSx6hQg3YsWMSA2dsdlA-46" value="FK" style="shape=partialRectangle;html=1;whiteSpace=wrap;connectable=0;fillColor=none;top=0;left=0;bottom=0;right=0;overflow=hidden;fontSize=15;" vertex="1" parent="pSx6hQg3YsWMSA2dsdlA-45">
          <mxGeometry width="40" height="30" as="geometry" />
        </mxCell>
        <mxCell id="pSx6hQg3YsWMSA2dsdlA-47" value="CommentID" style="shape=partialRectangle;html=1;whiteSpace=wrap;connectable=0;fillColor=none;top=0;left=0;bottom=0;right=0;align=left;spacingLeft=6;overflow=hidden;fontSize=15;" vertex="1" parent="pSx6hQg3YsWMSA2dsdlA-45">
          <mxGeometry x="40" width="140" height="30" as="geometry" />
        </mxCell>
        <mxCell id="pSx6hQg3YsWMSA2dsdlA-48" value="userProfiles" style="shape=table;html=1;whiteSpace=wrap;startSize=30;container=1;collapsible=0;childLayout=tableLayout;fixedRows=1;rowLines=0;fontStyle=1;align=center;fontSize=15;" vertex="1" parent="1">
          <mxGeometry x="1190" y="160" width="180" height="210" as="geometry" />
        </mxCell>
        <mxCell id="pSx6hQg3YsWMSA2dsdlA-49" value="" style="shape=partialRectangle;html=1;whiteSpace=wrap;collapsible=0;dropTarget=0;pointerEvents=0;fillColor=none;top=0;left=0;bottom=1;right=0;points=[[0,0.5],[1,0.5]];portConstraint=eastwest;fontSize=15;" vertex="1" parent="pSx6hQg3YsWMSA2dsdlA-48">
          <mxGeometry y="30" width="180" height="30" as="geometry" />
        </mxCell>
        <mxCell id="pSx6hQg3YsWMSA2dsdlA-50" value="PK, FK" style="shape=partialRectangle;html=1;whiteSpace=wrap;connectable=0;fillColor=none;top=0;left=0;bottom=0;right=0;overflow=hidden;fontSize=15;" vertex="1" parent="pSx6hQg3YsWMSA2dsdlA-49">
          <mxGeometry width="60" height="30" as="geometry" />
        </mxCell>
        <mxCell id="pSx6hQg3YsWMSA2dsdlA-51" value="&lt;u&gt;userID&lt;/u&gt;" style="shape=partialRectangle;html=1;whiteSpace=wrap;connectable=0;fillColor=none;top=0;left=0;bottom=0;right=0;align=left;spacingLeft=6;overflow=hidden;fontSize=15;" vertex="1" parent="pSx6hQg3YsWMSA2dsdlA-49">
          <mxGeometry x="60" width="120" height="30" as="geometry" />
        </mxCell>
        <mxCell id="pSx6hQg3YsWMSA2dsdlA-52" value="" style="shape=partialRectangle;html=1;whiteSpace=wrap;collapsible=0;dropTarget=0;pointerEvents=0;fillColor=none;top=0;left=0;bottom=0;right=0;points=[[0,0.5],[1,0.5]];portConstraint=eastwest;fontSize=15;" vertex="1" parent="pSx6hQg3YsWMSA2dsdlA-48">
          <mxGeometry y="60" width="180" height="30" as="geometry" />
        </mxCell>
        <mxCell id="pSx6hQg3YsWMSA2dsdlA-53" value="" style="shape=partialRectangle;html=1;whiteSpace=wrap;connectable=0;fillColor=none;top=0;left=0;bottom=0;right=0;overflow=hidden;fontSize=15;" vertex="1" parent="pSx6hQg3YsWMSA2dsdlA-52">
          <mxGeometry width="60" height="30" as="geometry" />
        </mxCell>
        <mxCell id="pSx6hQg3YsWMSA2dsdlA-54" value="firstName" style="shape=partialRectangle;html=1;whiteSpace=wrap;connectable=0;fillColor=none;top=0;left=0;bottom=0;right=0;align=left;spacingLeft=6;overflow=hidden;fontSize=15;" vertex="1" parent="pSx6hQg3YsWMSA2dsdlA-52">
          <mxGeometry x="60" width="120" height="30" as="geometry" />
        </mxCell>
        <mxCell id="pSx6hQg3YsWMSA2dsdlA-55" value="" style="shape=partialRectangle;html=1;whiteSpace=wrap;collapsible=0;dropTarget=0;pointerEvents=0;fillColor=none;top=0;left=0;bottom=0;right=0;points=[[0,0.5],[1,0.5]];portConstraint=eastwest;fontSize=15;" vertex="1" parent="pSx6hQg3YsWMSA2dsdlA-48">
          <mxGeometry y="90" width="180" height="30" as="geometry" />
        </mxCell>
        <mxCell id="pSx6hQg3YsWMSA2dsdlA-56" value="" style="shape=partialRectangle;html=1;whiteSpace=wrap;connectable=0;fillColor=none;top=0;left=0;bottom=0;right=0;overflow=hidden;fontSize=15;" vertex="1" parent="pSx6hQg3YsWMSA2dsdlA-55">
          <mxGeometry width="60" height="30" as="geometry" />
        </mxCell>
        <mxCell id="pSx6hQg3YsWMSA2dsdlA-57" value="lastName" style="shape=partialRectangle;html=1;whiteSpace=wrap;connectable=0;fillColor=none;top=0;left=0;bottom=0;right=0;align=left;spacingLeft=6;overflow=hidden;fontSize=15;" vertex="1" parent="pSx6hQg3YsWMSA2dsdlA-55">
          <mxGeometry x="60" width="120" height="30" as="geometry" />
        </mxCell>
        <mxCell id="pSx6hQg3YsWMSA2dsdlA-135" style="shape=partialRectangle;html=1;whiteSpace=wrap;collapsible=0;dropTarget=0;pointerEvents=0;fillColor=none;top=0;left=0;bottom=0;right=0;points=[[0,0.5],[1,0.5]];portConstraint=eastwest;fontSize=15;" vertex="1" parent="pSx6hQg3YsWMSA2dsdlA-48">
          <mxGeometry y="120" width="180" height="30" as="geometry" />
        </mxCell>
        <mxCell id="pSx6hQg3YsWMSA2dsdlA-136" style="shape=partialRectangle;html=1;whiteSpace=wrap;connectable=0;fillColor=none;top=0;left=0;bottom=0;right=0;overflow=hidden;fontSize=15;" vertex="1" parent="pSx6hQg3YsWMSA2dsdlA-135">
          <mxGeometry width="60" height="30" as="geometry" />
        </mxCell>
        <mxCell id="pSx6hQg3YsWMSA2dsdlA-137" value="about" style="shape=partialRectangle;html=1;whiteSpace=wrap;connectable=0;fillColor=none;top=0;left=0;bottom=0;right=0;align=left;spacingLeft=6;overflow=hidden;fontSize=15;" vertex="1" parent="pSx6hQg3YsWMSA2dsdlA-135">
          <mxGeometry x="60" width="120" height="30" as="geometry" />
        </mxCell>
        <mxCell id="pSx6hQg3YsWMSA2dsdlA-138" style="shape=partialRectangle;html=1;whiteSpace=wrap;collapsible=0;dropTarget=0;pointerEvents=0;fillColor=none;top=0;left=0;bottom=0;right=0;points=[[0,0.5],[1,0.5]];portConstraint=eastwest;fontSize=15;" vertex="1" parent="pSx6hQg3YsWMSA2dsdlA-48">
          <mxGeometry y="150" width="180" height="30" as="geometry" />
        </mxCell>
        <mxCell id="pSx6hQg3YsWMSA2dsdlA-139" style="shape=partialRectangle;html=1;whiteSpace=wrap;connectable=0;fillColor=none;top=0;left=0;bottom=0;right=0;overflow=hidden;fontSize=15;" vertex="1" parent="pSx6hQg3YsWMSA2dsdlA-138">
          <mxGeometry width="60" height="30" as="geometry" />
        </mxCell>
        <mxCell id="pSx6hQg3YsWMSA2dsdlA-140" value="profilePicture" style="shape=partialRectangle;html=1;whiteSpace=wrap;connectable=0;fillColor=none;top=0;left=0;bottom=0;right=0;align=left;spacingLeft=6;overflow=hidden;fontSize=15;" vertex="1" parent="pSx6hQg3YsWMSA2dsdlA-138">
          <mxGeometry x="60" width="120" height="30" as="geometry" />
        </mxCell>
        <mxCell id="pSx6hQg3YsWMSA2dsdlA-141" style="shape=partialRectangle;html=1;whiteSpace=wrap;collapsible=0;dropTarget=0;pointerEvents=0;fillColor=none;top=0;left=0;bottom=0;right=0;points=[[0,0.5],[1,0.5]];portConstraint=eastwest;fontSize=15;" vertex="1" parent="pSx6hQg3YsWMSA2dsdlA-48">
          <mxGeometry y="180" width="180" height="30" as="geometry" />
        </mxCell>
        <mxCell id="pSx6hQg3YsWMSA2dsdlA-142" style="shape=partialRectangle;html=1;whiteSpace=wrap;connectable=0;fillColor=none;top=0;left=0;bottom=0;right=0;overflow=hidden;fontSize=15;" vertex="1" parent="pSx6hQg3YsWMSA2dsdlA-141">
          <mxGeometry width="60" height="30" as="geometry" />
        </mxCell>
        <mxCell id="pSx6hQg3YsWMSA2dsdlA-143" value="profileCreated" style="shape=partialRectangle;html=1;whiteSpace=wrap;connectable=0;fillColor=none;top=0;left=0;bottom=0;right=0;align=left;spacingLeft=6;overflow=hidden;fontSize=15;" vertex="1" parent="pSx6hQg3YsWMSA2dsdlA-141">
          <mxGeometry x="60" width="120" height="30" as="geometry" />
        </mxCell>
        <mxCell id="pSx6hQg3YsWMSA2dsdlA-68" value="comments" style="shape=table;html=1;whiteSpace=wrap;startSize=30;container=1;collapsible=0;childLayout=tableLayout;fixedRows=1;rowLines=0;fontStyle=1;align=center;fontSize=15;" vertex="1" parent="1">
          <mxGeometry x="470" y="130" width="180" height="210" as="geometry" />
        </mxCell>
        <mxCell id="pSx6hQg3YsWMSA2dsdlA-69" value="" style="shape=partialRectangle;html=1;whiteSpace=wrap;collapsible=0;dropTarget=0;pointerEvents=0;fillColor=none;top=0;left=0;bottom=1;right=0;points=[[0,0.5],[1,0.5]];portConstraint=eastwest;fontSize=15;" vertex="1" parent="pSx6hQg3YsWMSA2dsdlA-68">
          <mxGeometry y="30" width="180" height="30" as="geometry" />
        </mxCell>
        <mxCell id="pSx6hQg3YsWMSA2dsdlA-70" value="PK" style="shape=partialRectangle;html=1;whiteSpace=wrap;connectable=0;fillColor=none;top=0;left=0;bottom=0;right=0;overflow=hidden;fontSize=15;" vertex="1" parent="pSx6hQg3YsWMSA2dsdlA-69">
          <mxGeometry width="40" height="30" as="geometry" />
        </mxCell>
        <mxCell id="pSx6hQg3YsWMSA2dsdlA-71" value="&lt;u style=&quot;font-size: 15px;&quot;&gt;id&lt;/u&gt;" style="shape=partialRectangle;html=1;whiteSpace=wrap;connectable=0;fillColor=none;top=0;left=0;bottom=0;right=0;align=left;spacingLeft=6;overflow=hidden;fontSize=15;" vertex="1" parent="pSx6hQg3YsWMSA2dsdlA-69">
          <mxGeometry x="40" width="140" height="30" as="geometry" />
        </mxCell>
        <mxCell id="pSx6hQg3YsWMSA2dsdlA-72" value="" style="shape=partialRectangle;html=1;whiteSpace=wrap;collapsible=0;dropTarget=0;pointerEvents=0;fillColor=none;top=0;left=0;bottom=0;right=0;points=[[0,0.5],[1,0.5]];portConstraint=eastwest;fontSize=15;" vertex="1" parent="pSx6hQg3YsWMSA2dsdlA-68">
          <mxGeometry y="60" width="180" height="30" as="geometry" />
        </mxCell>
        <mxCell id="pSx6hQg3YsWMSA2dsdlA-73" value="FK" style="shape=partialRectangle;html=1;whiteSpace=wrap;connectable=0;fillColor=none;top=0;left=0;bottom=0;right=0;overflow=hidden;fontSize=15;" vertex="1" parent="pSx6hQg3YsWMSA2dsdlA-72">
          <mxGeometry width="40" height="30" as="geometry" />
        </mxCell>
        <mxCell id="pSx6hQg3YsWMSA2dsdlA-74" value="userID" style="shape=partialRectangle;html=1;whiteSpace=wrap;connectable=0;fillColor=none;top=0;left=0;bottom=0;right=0;align=left;spacingLeft=6;overflow=hidden;fontSize=15;" vertex="1" parent="pSx6hQg3YsWMSA2dsdlA-72">
          <mxGeometry x="40" width="140" height="30" as="geometry" />
        </mxCell>
        <mxCell id="pSx6hQg3YsWMSA2dsdlA-75" value="" style="shape=partialRectangle;html=1;whiteSpace=wrap;collapsible=0;dropTarget=0;pointerEvents=0;fillColor=none;top=0;left=0;bottom=0;right=0;points=[[0,0.5],[1,0.5]];portConstraint=eastwest;fontSize=15;" vertex="1" parent="pSx6hQg3YsWMSA2dsdlA-68">
          <mxGeometry y="90" width="180" height="30" as="geometry" />
        </mxCell>
        <mxCell id="pSx6hQg3YsWMSA2dsdlA-76" value="FK" style="shape=partialRectangle;html=1;whiteSpace=wrap;connectable=0;fillColor=none;top=0;left=0;bottom=0;right=0;overflow=hidden;fontSize=15;" vertex="1" parent="pSx6hQg3YsWMSA2dsdlA-75">
          <mxGeometry width="40" height="30" as="geometry" />
        </mxCell>
        <mxCell id="pSx6hQg3YsWMSA2dsdlA-77" value="postID" style="shape=partialRectangle;html=1;whiteSpace=wrap;connectable=0;fillColor=none;top=0;left=0;bottom=0;right=0;align=left;spacingLeft=6;overflow=hidden;fontSize=15;" vertex="1" parent="pSx6hQg3YsWMSA2dsdlA-75">
          <mxGeometry x="40" width="140" height="30" as="geometry" />
        </mxCell>
        <mxCell id="pSx6hQg3YsWMSA2dsdlA-147" style="shape=partialRectangle;html=1;whiteSpace=wrap;collapsible=0;dropTarget=0;pointerEvents=0;fillColor=none;top=0;left=0;bottom=0;right=0;points=[[0,0.5],[1,0.5]];portConstraint=eastwest;fontSize=15;" vertex="1" parent="pSx6hQg3YsWMSA2dsdlA-68">
          <mxGeometry y="120" width="180" height="30" as="geometry" />
        </mxCell>
        <mxCell id="pSx6hQg3YsWMSA2dsdlA-148" style="shape=partialRectangle;html=1;whiteSpace=wrap;connectable=0;fillColor=none;top=0;left=0;bottom=0;right=0;overflow=hidden;fontSize=15;" vertex="1" parent="pSx6hQg3YsWMSA2dsdlA-147">
          <mxGeometry width="40" height="30" as="geometry" />
        </mxCell>
        <mxCell id="pSx6hQg3YsWMSA2dsdlA-149" value="content" style="shape=partialRectangle;html=1;whiteSpace=wrap;connectable=0;fillColor=none;top=0;left=0;bottom=0;right=0;align=left;spacingLeft=6;overflow=hidden;fontSize=15;" vertex="1" parent="pSx6hQg3YsWMSA2dsdlA-147">
          <mxGeometry x="40" width="140" height="30" as="geometry" />
        </mxCell>
        <mxCell id="pSx6hQg3YsWMSA2dsdlA-150" style="shape=partialRectangle;html=1;whiteSpace=wrap;collapsible=0;dropTarget=0;pointerEvents=0;fillColor=none;top=0;left=0;bottom=0;right=0;points=[[0,0.5],[1,0.5]];portConstraint=eastwest;fontSize=15;" vertex="1" parent="pSx6hQg3YsWMSA2dsdlA-68">
          <mxGeometry y="150" width="180" height="30" as="geometry" />
        </mxCell>
        <mxCell id="pSx6hQg3YsWMSA2dsdlA-151" style="shape=partialRectangle;html=1;whiteSpace=wrap;connectable=0;fillColor=none;top=0;left=0;bottom=0;right=0;overflow=hidden;fontSize=15;" vertex="1" parent="pSx6hQg3YsWMSA2dsdlA-150">
          <mxGeometry width="40" height="30" as="geometry" />
        </mxCell>
        <mxCell id="pSx6hQg3YsWMSA2dsdlA-152" value="postDate" style="shape=partialRectangle;html=1;whiteSpace=wrap;connectable=0;fillColor=none;top=0;left=0;bottom=0;right=0;align=left;spacingLeft=6;overflow=hidden;fontSize=15;" vertex="1" parent="pSx6hQg3YsWMSA2dsdlA-150">
          <mxGeometry x="40" width="140" height="30" as="geometry" />
        </mxCell>
        <mxCell id="pSx6hQg3YsWMSA2dsdlA-153" style="shape=partialRectangle;html=1;whiteSpace=wrap;collapsible=0;dropTarget=0;pointerEvents=0;fillColor=none;top=0;left=0;bottom=0;right=0;points=[[0,0.5],[1,0.5]];portConstraint=eastwest;fontSize=15;" vertex="1" parent="pSx6hQg3YsWMSA2dsdlA-68">
          <mxGeometry y="180" width="180" height="30" as="geometry" />
        </mxCell>
        <mxCell id="pSx6hQg3YsWMSA2dsdlA-154" style="shape=partialRectangle;html=1;whiteSpace=wrap;connectable=0;fillColor=none;top=0;left=0;bottom=0;right=0;overflow=hidden;fontSize=15;" vertex="1" parent="pSx6hQg3YsWMSA2dsdlA-153">
          <mxGeometry width="40" height="30" as="geometry" />
        </mxCell>
        <mxCell id="pSx6hQg3YsWMSA2dsdlA-155" value="lastEdited" style="shape=partialRectangle;html=1;whiteSpace=wrap;connectable=0;fillColor=none;top=0;left=0;bottom=0;right=0;align=left;spacingLeft=6;overflow=hidden;fontSize=15;" vertex="1" parent="pSx6hQg3YsWMSA2dsdlA-153">
          <mxGeometry x="40" width="140" height="30" as="geometry" />
        </mxCell>
        <mxCell id="pSx6hQg3YsWMSA2dsdlA-78" value="postLikes" style="shape=table;html=1;whiteSpace=wrap;startSize=30;container=1;collapsible=0;childLayout=tableLayout;fixedRows=1;rowLines=0;fontStyle=1;align=center;fontSize=15;" vertex="1" parent="1">
          <mxGeometry x="950" y="340" width="180" height="150" as="geometry" />
        </mxCell>
        <mxCell id="pSx6hQg3YsWMSA2dsdlA-79" value="" style="shape=partialRectangle;html=1;whiteSpace=wrap;collapsible=0;dropTarget=0;pointerEvents=0;fillColor=none;top=0;left=0;bottom=1;right=0;points=[[0,0.5],[1,0.5]];portConstraint=eastwest;fontSize=15;" vertex="1" parent="pSx6hQg3YsWMSA2dsdlA-78">
          <mxGeometry y="30" width="180" height="30" as="geometry" />
        </mxCell>
        <mxCell id="pSx6hQg3YsWMSA2dsdlA-80" value="PK" style="shape=partialRectangle;html=1;whiteSpace=wrap;connectable=0;fillColor=none;top=0;left=0;bottom=0;right=0;overflow=hidden;fontSize=15;" vertex="1" parent="pSx6hQg3YsWMSA2dsdlA-79">
          <mxGeometry width="40" height="30" as="geometry" />
        </mxCell>
        <mxCell id="pSx6hQg3YsWMSA2dsdlA-81" value="&lt;u style=&quot;font-size: 15px;&quot;&gt;id&lt;/u&gt;" style="shape=partialRectangle;html=1;whiteSpace=wrap;connectable=0;fillColor=none;top=0;left=0;bottom=0;right=0;align=left;spacingLeft=6;overflow=hidden;fontSize=15;" vertex="1" parent="pSx6hQg3YsWMSA2dsdlA-79">
          <mxGeometry x="40" width="140" height="30" as="geometry" />
        </mxCell>
        <mxCell id="pSx6hQg3YsWMSA2dsdlA-82" value="" style="shape=partialRectangle;html=1;whiteSpace=wrap;collapsible=0;dropTarget=0;pointerEvents=0;fillColor=none;top=0;left=0;bottom=0;right=0;points=[[0,0.5],[1,0.5]];portConstraint=eastwest;fontSize=15;" vertex="1" parent="pSx6hQg3YsWMSA2dsdlA-78">
          <mxGeometry y="60" width="180" height="30" as="geometry" />
        </mxCell>
        <mxCell id="pSx6hQg3YsWMSA2dsdlA-83" value="FK" style="shape=partialRectangle;html=1;whiteSpace=wrap;connectable=0;fillColor=none;top=0;left=0;bottom=0;right=0;overflow=hidden;fontSize=15;" vertex="1" parent="pSx6hQg3YsWMSA2dsdlA-82">
          <mxGeometry width="40" height="30" as="geometry" />
        </mxCell>
        <mxCell id="pSx6hQg3YsWMSA2dsdlA-84" value="userID" style="shape=partialRectangle;html=1;whiteSpace=wrap;connectable=0;fillColor=none;top=0;left=0;bottom=0;right=0;align=left;spacingLeft=6;overflow=hidden;fontSize=15;" vertex="1" parent="pSx6hQg3YsWMSA2dsdlA-82">
          <mxGeometry x="40" width="140" height="30" as="geometry" />
        </mxCell>
        <mxCell id="pSx6hQg3YsWMSA2dsdlA-85" value="" style="shape=partialRectangle;html=1;whiteSpace=wrap;collapsible=0;dropTarget=0;pointerEvents=0;fillColor=none;top=0;left=0;bottom=0;right=0;points=[[0,0.5],[1,0.5]];portConstraint=eastwest;fontSize=15;" vertex="1" parent="pSx6hQg3YsWMSA2dsdlA-78">
          <mxGeometry y="90" width="180" height="30" as="geometry" />
        </mxCell>
        <mxCell id="pSx6hQg3YsWMSA2dsdlA-86" value="FK" style="shape=partialRectangle;html=1;whiteSpace=wrap;connectable=0;fillColor=none;top=0;left=0;bottom=0;right=0;overflow=hidden;fontSize=15;" vertex="1" parent="pSx6hQg3YsWMSA2dsdlA-85">
          <mxGeometry width="40" height="30" as="geometry" />
        </mxCell>
        <mxCell id="pSx6hQg3YsWMSA2dsdlA-87" value="postID" style="shape=partialRectangle;html=1;whiteSpace=wrap;connectable=0;fillColor=none;top=0;left=0;bottom=0;right=0;align=left;spacingLeft=6;overflow=hidden;fontSize=15;" vertex="1" parent="pSx6hQg3YsWMSA2dsdlA-85">
          <mxGeometry x="40" width="140" height="30" as="geometry" />
        </mxCell>
        <mxCell id="pSx6hQg3YsWMSA2dsdlA-88" value="followers" style="shape=table;html=1;whiteSpace=wrap;startSize=30;container=1;collapsible=0;childLayout=tableLayout;fixedRows=1;rowLines=0;fontStyle=1;align=center;fontSize=15;" vertex="1" parent="1">
          <mxGeometry x="950" y="20" width="180" height="120" as="geometry" />
        </mxCell>
        <mxCell id="pSx6hQg3YsWMSA2dsdlA-89" value="" style="shape=partialRectangle;html=1;whiteSpace=wrap;collapsible=0;dropTarget=0;pointerEvents=0;fillColor=none;top=0;left=0;bottom=1;right=0;points=[[0,0.5],[1,0.5]];portConstraint=eastwest;fontSize=15;" vertex="1" parent="pSx6hQg3YsWMSA2dsdlA-88">
          <mxGeometry y="30" width="180" height="30" as="geometry" />
        </mxCell>
        <mxCell id="pSx6hQg3YsWMSA2dsdlA-90" value="PK" style="shape=partialRectangle;html=1;whiteSpace=wrap;connectable=0;fillColor=none;top=0;left=0;bottom=0;right=0;overflow=hidden;fontSize=15;" vertex="1" parent="pSx6hQg3YsWMSA2dsdlA-89">
          <mxGeometry width="40" height="30" as="geometry" />
        </mxCell>
        <mxCell id="pSx6hQg3YsWMSA2dsdlA-91" value="&lt;u style=&quot;font-size: 15px;&quot;&gt;id&lt;/u&gt;" style="shape=partialRectangle;html=1;whiteSpace=wrap;connectable=0;fillColor=none;top=0;left=0;bottom=0;right=0;align=left;spacingLeft=6;overflow=hidden;fontSize=15;" vertex="1" parent="pSx6hQg3YsWMSA2dsdlA-89">
          <mxGeometry x="40" width="140" height="30" as="geometry" />
        </mxCell>
        <mxCell id="pSx6hQg3YsWMSA2dsdlA-92" value="" style="shape=partialRectangle;html=1;whiteSpace=wrap;collapsible=0;dropTarget=0;pointerEvents=0;fillColor=none;top=0;left=0;bottom=0;right=0;points=[[0,0.5],[1,0.5]];portConstraint=eastwest;fontSize=15;" vertex="1" parent="pSx6hQg3YsWMSA2dsdlA-88">
          <mxGeometry y="60" width="180" height="30" as="geometry" />
        </mxCell>
        <mxCell id="pSx6hQg3YsWMSA2dsdlA-93" value="FK" style="shape=partialRectangle;html=1;whiteSpace=wrap;connectable=0;fillColor=none;top=0;left=0;bottom=0;right=0;overflow=hidden;fontSize=15;" vertex="1" parent="pSx6hQg3YsWMSA2dsdlA-92">
          <mxGeometry width="40" height="30" as="geometry" />
        </mxCell>
        <mxCell id="pSx6hQg3YsWMSA2dsdlA-94" value="thisUserID" style="shape=partialRectangle;html=1;whiteSpace=wrap;connectable=0;fillColor=none;top=0;left=0;bottom=0;right=0;align=left;spacingLeft=6;overflow=hidden;fontSize=15;" vertex="1" parent="pSx6hQg3YsWMSA2dsdlA-92">
          <mxGeometry x="40" width="140" height="30" as="geometry" />
        </mxCell>
        <mxCell id="pSx6hQg3YsWMSA2dsdlA-95" value="" style="shape=partialRectangle;html=1;whiteSpace=wrap;collapsible=0;dropTarget=0;pointerEvents=0;fillColor=none;top=0;left=0;bottom=0;right=0;points=[[0,0.5],[1,0.5]];portConstraint=eastwest;fontSize=15;" vertex="1" parent="pSx6hQg3YsWMSA2dsdlA-88">
          <mxGeometry y="90" width="180" height="30" as="geometry" />
        </mxCell>
        <mxCell id="pSx6hQg3YsWMSA2dsdlA-96" value="FK" style="shape=partialRectangle;html=1;whiteSpace=wrap;connectable=0;fillColor=none;top=0;left=0;bottom=0;right=0;overflow=hidden;fontSize=15;" vertex="1" parent="pSx6hQg3YsWMSA2dsdlA-95">
          <mxGeometry width="40" height="30" as="geometry" />
        </mxCell>
        <mxCell id="pSx6hQg3YsWMSA2dsdlA-97" value="followedUserID" style="shape=partialRectangle;html=1;whiteSpace=wrap;connectable=0;fillColor=none;top=0;left=0;bottom=0;right=0;align=left;spacingLeft=6;overflow=hidden;fontSize=15;" vertex="1" parent="pSx6hQg3YsWMSA2dsdlA-95">
          <mxGeometry x="40" width="140" height="30" as="geometry" />
        </mxCell>
        <mxCell id="pSx6hQg3YsWMSA2dsdlA-165" value="images" style="shape=table;html=1;whiteSpace=wrap;startSize=30;container=1;collapsible=0;childLayout=tableLayout;fixedRows=1;rowLines=0;fontStyle=1;align=center;fontSize=15;" vertex="1" parent="1">
          <mxGeometry x="710" y="480" width="180" height="120" as="geometry" />
        </mxCell>
        <mxCell id="pSx6hQg3YsWMSA2dsdlA-166" value="" style="shape=partialRectangle;html=1;whiteSpace=wrap;collapsible=0;dropTarget=0;pointerEvents=0;fillColor=none;top=0;left=0;bottom=1;right=0;points=[[0,0.5],[1,0.5]];portConstraint=eastwest;fontSize=15;" vertex="1" parent="pSx6hQg3YsWMSA2dsdlA-165">
          <mxGeometry y="30" width="180" height="30" as="geometry" />
        </mxCell>
        <mxCell id="pSx6hQg3YsWMSA2dsdlA-167" value="PK" style="shape=partialRectangle;html=1;whiteSpace=wrap;connectable=0;fillColor=none;top=0;left=0;bottom=0;right=0;overflow=hidden;fontSize=15;" vertex="1" parent="pSx6hQg3YsWMSA2dsdlA-166">
          <mxGeometry width="40" height="30" as="geometry" />
        </mxCell>
        <mxCell id="pSx6hQg3YsWMSA2dsdlA-168" value="&lt;u style=&quot;font-size: 15px;&quot;&gt;id&lt;/u&gt;" style="shape=partialRectangle;html=1;whiteSpace=wrap;connectable=0;fillColor=none;top=0;left=0;bottom=0;right=0;align=left;spacingLeft=6;overflow=hidden;fontSize=15;" vertex="1" parent="pSx6hQg3YsWMSA2dsdlA-166">
          <mxGeometry x="40" width="140" height="30" as="geometry" />
        </mxCell>
        <mxCell id="pSx6hQg3YsWMSA2dsdlA-169" value="" style="shape=partialRectangle;html=1;whiteSpace=wrap;collapsible=0;dropTarget=0;pointerEvents=0;fillColor=none;top=0;left=0;bottom=0;right=0;points=[[0,0.5],[1,0.5]];portConstraint=eastwest;fontSize=15;" vertex="1" parent="pSx6hQg3YsWMSA2dsdlA-165">
          <mxGeometry y="60" width="180" height="30" as="geometry" />
        </mxCell>
        <mxCell id="pSx6hQg3YsWMSA2dsdlA-170" value="FK" style="shape=partialRectangle;html=1;whiteSpace=wrap;connectable=0;fillColor=none;top=0;left=0;bottom=0;right=0;overflow=hidden;fontSize=15;" vertex="1" parent="pSx6hQg3YsWMSA2dsdlA-169">
          <mxGeometry width="40" height="30" as="geometry" />
        </mxCell>
        <mxCell id="pSx6hQg3YsWMSA2dsdlA-171" value="postID" style="shape=partialRectangle;html=1;whiteSpace=wrap;connectable=0;fillColor=none;top=0;left=0;bottom=0;right=0;align=left;spacingLeft=6;overflow=hidden;fontSize=15;" vertex="1" parent="pSx6hQg3YsWMSA2dsdlA-169">
          <mxGeometry x="40" width="140" height="30" as="geometry" />
        </mxCell>
        <mxCell id="pSx6hQg3YsWMSA2dsdlA-172" value="" style="shape=partialRectangle;html=1;whiteSpace=wrap;collapsible=0;dropTarget=0;pointerEvents=0;fillColor=none;top=0;left=0;bottom=0;right=0;points=[[0,0.5],[1,0.5]];portConstraint=eastwest;fontSize=15;" vertex="1" parent="pSx6hQg3YsWMSA2dsdlA-165">
          <mxGeometry y="90" width="180" height="30" as="geometry" />
        </mxCell>
        <mxCell id="pSx6hQg3YsWMSA2dsdlA-173" value="" style="shape=partialRectangle;html=1;whiteSpace=wrap;connectable=0;fillColor=none;top=0;left=0;bottom=0;right=0;overflow=hidden;fontSize=15;" vertex="1" parent="pSx6hQg3YsWMSA2dsdlA-172">
          <mxGeometry width="40" height="30" as="geometry" />
        </mxCell>
        <mxCell id="pSx6hQg3YsWMSA2dsdlA-174" value="filePath" style="shape=partialRectangle;html=1;whiteSpace=wrap;connectable=0;fillColor=none;top=0;left=0;bottom=0;right=0;align=left;spacingLeft=6;overflow=hidden;fontSize=15;" vertex="1" parent="pSx6hQg3YsWMSA2dsdlA-172">
          <mxGeometry x="40" width="140" height="30" as="geometry" />
        </mxCell>
        <mxCell id="pSx6hQg3YsWMSA2dsdlA-180" style="edgeStyle=orthogonalEdgeStyle;rounded=0;orthogonalLoop=1;jettySize=auto;html=1;entryX=1;entryY=0.5;entryDx=0;entryDy=0;fontSize=15;" edge="1" parent="1" source="pSx6hQg3YsWMSA2dsdlA-49" target="pSx6hQg3YsWMSA2dsdlA-19">
          <mxGeometry relative="1" as="geometry" />
        </mxCell>
        <mxCell id="pSx6hQg3YsWMSA2dsdlA-181" style="edgeStyle=orthogonalEdgeStyle;rounded=0;orthogonalLoop=1;jettySize=auto;html=1;entryX=0;entryY=0.5;entryDx=0;entryDy=0;fontSize=15;" edge="1" parent="1" source="pSx6hQg3YsWMSA2dsdlA-72" target="pSx6hQg3YsWMSA2dsdlA-19">
          <mxGeometry relative="1" as="geometry" />
        </mxCell>
        <mxCell id="pSx6hQg3YsWMSA2dsdlA-182" style="edgeStyle=orthogonalEdgeStyle;rounded=0;orthogonalLoop=1;jettySize=auto;html=1;entryX=0;entryY=0.5;entryDx=0;entryDy=0;fontSize=15;" edge="1" parent="1" source="pSx6hQg3YsWMSA2dsdlA-42" target="pSx6hQg3YsWMSA2dsdlA-19">
          <mxGeometry relative="1" as="geometry" />
        </mxCell>
        <mxCell id="pSx6hQg3YsWMSA2dsdlA-183" style="edgeStyle=orthogonalEdgeStyle;rounded=0;orthogonalLoop=1;jettySize=auto;html=1;entryX=1;entryY=0.5;entryDx=0;entryDy=0;fontSize=15;" edge="1" parent="1" source="pSx6hQg3YsWMSA2dsdlA-45" target="pSx6hQg3YsWMSA2dsdlA-69">
          <mxGeometry relative="1" as="geometry" />
        </mxCell>
        <mxCell id="pSx6hQg3YsWMSA2dsdlA-184" style="edgeStyle=orthogonalEdgeStyle;rounded=0;orthogonalLoop=1;jettySize=auto;html=1;entryX=0;entryY=0.5;entryDx=0;entryDy=0;fontSize=15;" edge="1" parent="1" source="pSx6hQg3YsWMSA2dsdlA-75" target="pSx6hQg3YsWMSA2dsdlA-29">
          <mxGeometry relative="1" as="geometry" />
        </mxCell>
        <mxCell id="pSx6hQg3YsWMSA2dsdlA-185" style="edgeStyle=orthogonalEdgeStyle;rounded=0;orthogonalLoop=1;jettySize=auto;html=1;entryX=0;entryY=0.5;entryDx=0;entryDy=0;fontSize=15;" edge="1" parent="1" source="pSx6hQg3YsWMSA2dsdlA-162" target="pSx6hQg3YsWMSA2dsdlA-19">
          <mxGeometry relative="1" as="geometry" />
        </mxCell>
        <mxCell id="pSx6hQg3YsWMSA2dsdlA-188" style="edgeStyle=orthogonalEdgeStyle;rounded=0;orthogonalLoop=1;jettySize=auto;html=1;entryX=0;entryY=0.5;entryDx=0;entryDy=0;fontSize=15;" edge="1" parent="1" source="pSx6hQg3YsWMSA2dsdlA-169" target="pSx6hQg3YsWMSA2dsdlA-29">
          <mxGeometry relative="1" as="geometry">
            <Array as="points">
              <mxPoint x="680" y="555" />
              <mxPoint x="680" y="285" />
            </Array>
          </mxGeometry>
        </mxCell>
        <mxCell id="pSx6hQg3YsWMSA2dsdlA-189" style="edgeStyle=orthogonalEdgeStyle;rounded=0;orthogonalLoop=1;jettySize=auto;html=1;entryX=0;entryY=0.5;entryDx=0;entryDy=0;fontSize=15;" edge="1" parent="1" source="pSx6hQg3YsWMSA2dsdlA-85" target="pSx6hQg3YsWMSA2dsdlA-29">
          <mxGeometry relative="1" as="geometry">
            <Array as="points">
              <mxPoint x="680" y="445" />
              <mxPoint x="680" y="285" />
            </Array>
          </mxGeometry>
        </mxCell>
        <mxCell id="pSx6hQg3YsWMSA2dsdlA-190" style="edgeStyle=orthogonalEdgeStyle;rounded=0;orthogonalLoop=1;jettySize=auto;html=1;entryX=1;entryY=0.5;entryDx=0;entryDy=0;fontSize=15;" edge="1" parent="1" source="pSx6hQg3YsWMSA2dsdlA-82" target="pSx6hQg3YsWMSA2dsdlA-19">
          <mxGeometry relative="1" as="geometry">
            <Array as="points">
              <mxPoint x="1150" y="415" />
              <mxPoint x="1150" y="205" />
            </Array>
          </mxGeometry>
        </mxCell>
        <mxCell id="pSx6hQg3YsWMSA2dsdlA-191" style="edgeStyle=orthogonalEdgeStyle;rounded=0;orthogonalLoop=1;jettySize=auto;html=1;entryX=1;entryY=0.5;entryDx=0;entryDy=0;fontSize=15;" edge="1" parent="1" source="pSx6hQg3YsWMSA2dsdlA-95" target="pSx6hQg3YsWMSA2dsdlA-19">
          <mxGeometry relative="1" as="geometry">
            <Array as="points">
              <mxPoint x="1150" y="125" />
              <mxPoint x="1150" y="205" />
            </Array>
          </mxGeometry>
        </mxCell>
        <mxCell id="pSx6hQg3YsWMSA2dsdlA-192" style="edgeStyle=orthogonalEdgeStyle;rounded=0;orthogonalLoop=1;jettySize=auto;html=1;entryX=1;entryY=0.5;entryDx=0;entryDy=0;fontSize=15;" edge="1" parent="1" source="pSx6hQg3YsWMSA2dsdlA-92" target="pSx6hQg3YsWMSA2dsdlA-19">
          <mxGeometry relative="1" as="geometry">
            <Array as="points">
              <mxPoint x="1150" y="95" />
              <mxPoint x="1150" y="205" />
            </Array>
          </mxGeometry>
        </mxCell>
      </root>
    </mxGraphModel>
  </diagram>
</mxfile>
